<?xml version="1.0" encoding="UTF-8"?>
<!DOCTYPE svg PUBLIC "-//W3C//DTD SVG 1.1//EN" "http://www.w3.org/Graphics/SVG/1.1/DTD/svg11.dtd">
<!-- Creator: CorelDRAW -->
<svg xmlns="http://www.w3.org/2000/svg" xml:space="preserve" width="210mm" height="297mm" style="shape-rendering:geometricPrecision; text-rendering:geometricPrecision; image-rendering:optimizeQuality; fill-rule:evenodd; clip-rule:evenodd"
viewBox="0 0 210 297"
 xmlns:xlink="http://www.w3.org/1999/xlink"
 version="1.1">
 <defs>
  <style type="text/css">
   <![CDATA[
    .fil1 {fill:black}
    .fil0 {fill:#F4E77D}
    .fil2 {fill:#FF6600}
    .fil3 {fill:white}
   ]]>
  </style>
 </defs>
 <g id="Ebene_x0020_1">
  <metadata id="CorelCorpID_0Corel-Layer"/>
  <path class="fil0" d="M2.2293 294.074l0 -270.966c0,-11.6201 9.4155,-21.0146 21.0351,-21.0146l156.539 0c11.6201,0 21.035,9.4155 21.035,21.0146l0 249.951c0,11.6201 -9.4155,21.0146 -21.035,21.0146l-177.574 0z"/>
  <path class="fil1" d="M36.306 259.029l-2.3074 6.8195c-0.2681,0.8655 -0.4737,1.463 -0.6389,2.3279l-0.0409 0c-0.1443,-0.7621 -0.3709,-1.5453 -0.6389,-2.3898l-2.2251 -6.7576 -3.9964 0 0 1.133c0.4532,0.1027 0.9887,0.1851 1.5038,0.2266l-1.4215 8.9827c-0.3089,0.0415 -0.7213,0.1028 -0.9887,0.1647l0 1.154 4.1821 0 0 -1.133c-0.3708,-0.0823 -0.8445,-0.1647 -1.2772,-0.2061l0.6389 -5.0477c0.1238,-0.9478 0.247,-1.8128 0.3089,-2.6987l0.0409 0c0.1443,0.8859 0.4328,1.8957 0.7417,2.8021l2.1013 6.3044 1.9576 0 2.2251 -6.778c0.2681,-0.8656 0.4736,-1.6277 0.5975,-2.3075l0.0408 -0.0006c0.0415,0.5975 0.1647,1.4011 0.3709,2.596l0.7832 5.1504c-0.4328,0.0415 -0.9269,0.1238 -1.2977,0.2062l0 1.133 4.2849 0.0005 0 -1.154c-0.2681,-0.0619 -0.6798,-0.1442 -0.9887,-0.1647l-1.442 -8.9827c0.5151,-0.0415 1.0507,-0.1238 1.5039,-0.2266l0 -1.133 -4.0181 -0.0006m0 -0.0204l0 0 0 0z"/>
  <path class="fil1" d="M51.8817 270.587l0 -1.133c-0.4736,-0.0414 -1.0302,-0.1027 -1.4419,-0.1647l0 -7.1489c-1.0711,-0.0619 -2.2666,0 -3.1934,0.1238l0 1.133c0.4532,0.0415 0.9683,0.1028 1.3391,0.1647l0 2.7198c0,1.71 -0.9478,3.0696 -2.2455,3.0696 -0.9887,0 -1.2772,-0.6179 -1.2772,-1.6896l0 -5.5213c-1.133,-0.0619 -2.3694,0.0204 -3.2758,0.1238l0 1.133c0.4532,0.0415 1.0302,0.1028 1.442,0.1647l0 4.574c0,1.5249 0.5974,2.7402 2.5544,2.7402 1.463,0 2.4722,-0.7621 2.9873,-1.8747l0.0414 0.0205c-0.0823,0.4946 -0.1238,1.1949 -0.1238,1.6685 1.0302,0.0818 2.287,-0.0006 3.1934,-0.1034z"/>
  <path class="fil1" d="M59.0102 268.012c0,-2.7606 -4.244,-1.8747 -4.244,-3.6261 0,-0.7003 0.5151,-1.133 1.5862,-1.133 0.2885,0 0.6179,0.0414 0.8859,0.0823 0.0415,0.4123 0.1028,0.8445 0.2062,1.2568l1.133 0 0 -2.4102c-0.7003,-0.1647 -1.463,-0.2681 -2.1013,-0.2681 -2.3279,0 -3.5643,1.154 -3.5643,2.6579 0,2.9463 4.2441,1.957 4.2441,3.688 0,0.7417 -0.7003,1.1949 -1.7515,1.1949 -0.3089,0 -0.6798,-0.0414 -0.9478,-0.0823 -0.0415,-0.4123 -0.1028,-0.8655 -0.1852,-1.2568l-1.1534 0 0 2.5136c0.6389,0.1647 1.463,0.247 2.1223,0.247 2.3483,0.0205 3.7698,-1.2363 3.7698,-2.864z"/>
  <path class="fil1" d="M66.0359 265.23l-3.6466 0c0.1647,-1.154 0.886,-1.9161 1.9162,-1.9161 1.0915,0 1.7509,0.7417 1.7304,1.9161m1.8338 0.4328c0,-2.0394 -1.0506,-3.7289 -3.5227,-3.7289 -2.5136,0 -3.9351,1.9365 -3.9351,4.5325 0,3.0287 1.4629,4.4087 4.1617,4.4087 1.0506,0 2.1012,-0.1851 2.9668,-0.556l-0.1647 -1.4629c-0.7003,0.3504 -1.6277,0.556 -2.5136,0.556 -1.71,0 -2.596,-0.9064 -2.5341,-2.8845l5.4798 0c0.0619,-0.3294 0.0619,-0.6179 0.0619,-0.8649z"/>
  <path class="fil1" d="M79.0566 270.587l0 -1.133c-0.4737,-0.0414 -1.0302,-0.1027 -1.442,-0.1647l0 -7.1489c-1.0711,-0.0619 -2.2665,0 -3.1934,0.1238l0 1.133c0.4532,0.0415 0.9683,0.1028 1.3392,0.1647l0 2.7198c0,1.71 -0.9479,3.0696 -2.2456,3.0696 -0.9887,0 -1.2772,-0.6179 -1.2772,-1.6896l0 -5.5213c-1.133,-0.0619 -2.3694,0.0204 -3.2757,0.1238l0 1.133c0.4532,0.0415 1.0302,0.1028 1.4419,0.1647l0 4.574c0,1.5249 0.5974,2.7402 2.5545,2.7402 1.4419,0 2.4721,-0.7621 2.9872,-1.8747l0.0415 0.0205c-0.0824,0.4946 -0.1238,1.1949 -0.1238,1.6685 1.0302,0.0818 2.287,-0.0006 3.1934,-0.1034z"/>
  <path class="fil1" d="M91.9335 270.711l3.2962 0 0 -1.133c-0.4327,-0.1027 -0.9268,-0.1851 -1.4419,-0.2265l0 -4.5741c0,-1.957 -0.9064,-2.8429 -2.5545,-2.8429 -1.5658,0 -2.5136,1.0302 -2.8845,1.8542 -0.1442,-0.7621 -0.7002,-1.8542 -2.3693,-1.8542 -1.3392,0 -2.4313,0.7212 -2.9253,1.8746l-0.0205 -0.0204c0.0824,-0.4947 0.1238,-1.2364 0.1238,-1.6685 -1.0302,-0.0619 -2.3074,0.0204 -3.2757,0.1238l0 1.133c0.4946,0.0414 1.0921,0.1028 1.5038,0.1647l0 5.7893c-0.5151,0.0415 -1.0506,0.1238 -1.5038,0.2266l0 1.133 4.6756 -0.0006 0 -1.154c-0.3913,-0.1028 -0.8859,-0.1647 -1.3391,-0.2062l0 -2.7402c0,-1.7923 1.0302,-3.111 2.2046,-3.111 1.0302,0 1.2364,0.7621 1.2364,1.7304l0 5.5009 3.1724 0.0011 0 -1.154c-0.3913,-0.1028 -0.886,-0.1647 -1.3392,-0.2061l0 -2.7402c0,-1.8958 1.1126,-3.1111 2.2047,-3.1111 0.9887,0 1.2363,0.6798 1.2363,1.7515l0 5.4599z"/>
  <path class="fil1" d="M34.6171 238.962l0 -3.0906c-0.9064,-0.2062 -1.8339,-0.3294 -2.7198,-0.3294 -3.997,0 -5.8513,2.5959 -5.8513,6.3044 0,3.5439 1.8339,5.6656 5.5009,5.6656 1.133,0 2.2251,-0.2062 3.1729,-0.5356l-0.1238 -1.7304c-0.7417,0.3294 -1.7304,0.5355 -2.6164,0.5355 -2.7402,0 -3.8323,-1.5657 -3.8323,-4.244 0,-2.4932 1.1126,-4.2855 3.3791,-4.2855 0.4947,0 0.9683,0.0415 1.4834,0.1647 0.0415,0.4736 0.1028,0.9478 0.2062,1.5249l1.4011 0m0 0.0204l0 0 0 0z"/>
  <path class="fil1" d="M42.4458 243.021c0,1.9985 -1.0098,2.9253 -2.2047,2.9253 -1.4419,0 -2.2046,-1.0302 -2.2046,-2.9668 0,-1.978 1.0921,-2.843 2.2251,-2.843 1.4629,0 2.1842,1.0507 2.1842,2.8845m1.8957 -0.1238c0,-3.0287 -1.6276,-4.306 -3.9351,-4.306 -2.6164,0 -4.2855,1.9985 -4.2855,4.5945 0,3.0287 1.5657,4.3678 3.9555,4.3678 2.5341,-0.021 4.2651,-2.0195 4.2651,-4.6563z"/>
  <path class="fil1" d="M57.5479 247.347l3.2961 0 0 -1.133c-0.4327,-0.1028 -0.9268,-0.1851 -1.4419,-0.2266l0 -4.574c0,-1.957 -0.9064,-2.843 -2.5545,-2.843 -1.5657,0 -2.5136,1.0302 -2.8844,1.8543 -0.1443,-0.7622 -0.7003,-1.8543 -2.3694,-1.8543 -1.3391,0 -2.4312,0.7213 -2.9253,1.8747l-0.0205 -0.0204c0.0824,-0.4947 0.1238,-1.2364 0.1238,-1.6686 -1.0302,-0.0619 -2.3074,0.0205 -3.2757,0.1238l0 1.133c0.4947,0.0415 1.0921,0.1028 1.5038,0.1647l0 5.7894c-0.5151,0.0414 -1.0506,0.1238 -1.5038,0.2266l0 1.1329 4.6756 0 0 -1.154c-0.3913,-0.1028 -0.8859,-0.1647 -1.3391,-0.2061l0 -2.7607c0,-1.7923 1.0302,-3.111 2.2251,-3.111 1.0302,0 1.2363,0.7621 1.2363,1.7304l0 5.5009 3.173 0.0005 0 -1.154c-0.3913,-0.1028 -0.8859,-0.1647 -1.3391,-0.2061l0 -2.7607c0,-1.8747 1.1125,-3.111 2.2251,-3.111 0.9887,0 1.2363,0.6798 1.2363,1.7514l-0.0006 5.5009m-0.0408 0l0 0 0 0z"/>
  <path class="fil1" d="M68.5495 242.794c0,2.3279 -1.0097,3.2138 -2.4721,3.2138 -0.5151,0 -0.9479,-0.0619 -1.3596,-0.1646l0 -2.6579c0,-1.463 0.7417,-3.0906 2.1223,-3.0906 1.1529,0 1.7094,0.9683 1.7094,2.6993m1.9162 -0.1653c0,-2.5959 -1.133,-4.0379 -3.1519,-4.0379 -1.3392,0 -2.3279,0.7003 -2.8021,1.7924l-0.0415 0c0.0823,-0.4736 0.1238,-1.154 0.1238,-1.6072 -1.0302,-0.0619 -2.287,0.0204 -3.2553,0.1238l0 1.133c0.4947,0.0414 1.0921,0.1028 1.5038,0.1647l0 10.0129c-0.5151,0.0415 -1.0506,0.1238 -1.5038,0.2266l0 1.133 4.8415 0.0006 0 -1.133c-0.4532,-0.1028 -0.9888,-0.1851 -1.5039,-0.2266l0 -2.843c0.4532,0.0824 0.8037,0.1028 1.2977,0.1028 2.8845,0 4.4917,-1.8134 4.4917,-4.8421z"/>
  <path class="fil1" d="M81.5702 247.244l0 -1.154c-0.4737,-0.0415 -1.0302,-0.1028 -1.442,-0.1647l0 -7.1489c-1.0711,-0.0619 -2.2665,0 -3.1934,0.1238l0 1.133c0.4532,0.0414 0.9683,0.1028 1.3392,0.1647l0 2.7197c0,1.71 -0.9479,3.0696 -2.2456,3.0696 -0.9887,0 -1.2772,-0.6179 -1.2772,-1.6895l0 -5.5213c-1.133,-0.0619 -2.3693,0.0204 -3.2757,0.1238l-0.0006 1.133c0.4532,0.0414 1.0302,0.1028 1.4419,0.1647l0 4.574c0,1.5248 0.5975,2.7402 2.5545,2.7402 1.463,0 2.4721,-0.7622 2.9872,-1.8747l0.0415 0.0204c-0.0823,0.4947 -0.1238,1.1949 -0.1238,1.6686 1.0308,0.0829 2.2876,0.021 3.194,-0.0824z"/>
  <path class="fil1" d="M87.5861 247.327l0 -1.5248c-0.3294,0.0823 -0.7417,0.1442 -1.133,0.1442 -0.8655,0 -1.133,-0.3504 -1.133,-1.6276l0 -4.1208 2.2456 0.0006 0 -1.442 -2.2456 -0.0006 0 -3.2348 -1.8338 0.4946 0 2.7402 -1.6481 0 0 1.442 1.6481 0.0006 0 4.6972c0,1.9161 0.556,2.6374 2.3898,2.6374 0.5566,-0.021 1.2159,-0.1034 1.71,-0.2062z"/>
  <path class="fil1" d="M94.4676 241.867l-3.6466 0c0.1647,-1.154 0.8859,-1.9162 1.9161,-1.9162 1.0916,0 1.7714,0.7417 1.7305,1.9162m1.8542 0.4327c0,-2.0393 -1.0506,-3.7289 -3.5228,-3.7289 -2.5136,0 -3.9351,1.9366 -3.9351,4.5325 0,3.0288 1.463,4.4088 4.1617,4.4088 1.0507,0 2.1013,-0.1852 2.9668,-0.556l-0.1647 -1.463c-0.7002,0.3505 -1.6276,0.556 -2.5136,0.556 -1.71,0 -2.5959,-0.9064 -2.534,-2.8844l5.4798 0.0006c0.0415,-0.33 0.0619,-0.6185 0.0619,-0.8656z"/>
  <path class="fil1" d="M103.697 238.591c-1.7924,-0.1646 -2.6375,0.9064 -3.0492,2.0809l-0.0204 0c0.1028,-0.6594 0.1647,-1.4215 0.1647,-1.8957 -1.0507,-0.0619 -2.3075,0.0204 -3.2758,0.1238l0 1.133c0.4947,0.0414 1.0921,0.1028 1.5039,0.1647l0 5.7893c-0.5151,0.0415 -1.0507,0.1238 -1.5039,0.2266l0 1.133 4.8415 0.0006 0 -1.133c-0.4532,-0.1028 -0.9887,-0.1851 -1.5038,-0.2266l0 -2.1223c0,-2.5755 0.8445,-3.7704 2.7402,-3.4615l0.1028 -1.8128z"/>
  <path class="fil1" d="M34.8437 218.194c0,2.9049 -1.7305,4.2855 -3.4615,4.2855 -2.3075,0 -3.3996,-1.7719 -3.3996,-4.4298 0,-2.8021 1.6277,-4.2644 3.42,-4.2644 2.1843,0.0204 3.4411,1.5861 3.4411,4.4087m1.9985 -0.1851c0,-3.9147 -2.1013,-5.8717 -5.2538,-5.8717 -3.0907,0 -5.6037,2.2665 -5.6037,6.1397 0,3.5847 1.71,5.8922 5.2538,5.8922 3.0901,0 5.6037,-2.287 5.6037,-6.1602z"/>
  <path class="fil1" d="M41.189 222.624l0 -11.2698c-1.133,-0.0619 -2.3694,0.0204 -3.3377,0.1238l0 1.133c0.4947,0.0415 1.0921,0.1028 1.5039,0.1647l0 9.8272c-0.5151,0.0415 -1.0507,0.1238 -1.5039,0.2266l0 1.133 4.7802 0.0006 0 -1.133c-0.4123,-0.0829 -0.9479,-0.1653 -1.4425,-0.2061z"/>
  <path class="fil1" d="M49.43 219.554c0,1.4629 -0.7621,3.0906 -2.1223,3.0906 -1.1744,0 -1.71,-0.9683 -1.71,-2.6987 0,-2.3279 1.0098,-3.2139 2.4722,-3.2139 0.4532,0 0.9064,0.0619 1.3595,0.1647l0.0006 2.6573m3.2553 4.327l0 -1.133c-0.4532,-0.0415 -1.0302,-0.1028 -1.4419,-0.1647l0 -11.1874c-1.133,-0.0619 -2.3693,0.0204 -3.3376,0.1238l0 1.133c0.4946,0.0414 1.0921,0.1028 1.5038,0.1647l0 2.534c-0.4736,-0.0415 -0.886,-0.0619 -1.2977,-0.0619 -2.7811,0 -4.4911,1.8957 -4.4911,4.8619 0,2.4932 1.0507,4.0589 3.173,4.0589 1.3391,0 2.3279,-0.7212 2.8021,-1.7923l0.0403 0c-0.0824,0.4947 -0.1238,1.154 -0.1238,1.6072 1.0302,0.0204 2.287,-0.0415 3.1729,-0.1442z"/>
  <path class="fil1" d="M59.2783 218.503l-3.6466 0c0.1647,-1.154 0.8859,-1.9161 1.9162,-1.9161 1.0915,0.0006 1.7713,0.7417 1.7304,1.9161m1.8542 0.4328c0,-2.0394 -1.0506,-3.7289 -3.5023,-3.7289 -2.5136,0 -3.9351,1.9366 -3.9351,4.5325 0,3.0287 1.463,4.4087 4.1617,4.4087 1.0506,0 2.1013,-0.1851 2.9668,-0.5559l-0.1647 -1.463c-0.7002,0.3504 -1.6276,0.556 -2.5136,0.556 -1.71,0 -2.596,-0.9064 -2.5545,-2.8845l5.4798 0.0006c0.0415,-0.33 0.0619,-0.6185 0.0619,-0.8655z"/>
  <path class="fil1" d="M69.2293 224.004l3.2962 0 0 -1.133c-0.4327,-0.1028 -0.9268,-0.1851 -1.4419,-0.2266l0 -4.6564c0,-1.5248 -0.6179,-2.7606 -2.5755,-2.7606 -1.442,0 -2.4722,0.7621 -2.9668,1.8747l-0.0415 -0.0205c0.0824,-0.4736 0.1443,-1.2363 0.1443,-1.6685 -1.0507,-0.0619 -2.3075,0.0205 -3.2758,0.1238l0 1.133c0.4947,0.0415 1.0921,0.1028 1.5039,0.1647l0 5.8098c-0.5151,0.0415 -1.0507,0.1238 -1.5039,0.2266l0 1.133 4.6774 0 0 -1.154c-0.3913,-0.1028 -0.886,-0.1647 -1.3391,-0.2062l0 -2.7811c0,-1.71 0.9682,-3.0696 2.2455,-3.0696 0.9887,0 1.2772,0.6179 1.2772,1.6896l0 5.5213z"/>
  <path class="fil1" d="M80.0249 219.451c0,2.3074 -1.0098,3.2138 -2.4722,3.2138 -0.5355,0 -0.9683,-0.0414 -1.3596,-0.1647l0 -2.6578c0,-1.463 0.7417,-3.0696 2.1223,-3.0696 1.1739,-0.0204 1.7095,0.9479 1.7095,2.6783m-3.8318 -8.0968c-1.133,-0.0619 -2.3898,0.0204 -3.3581,0.1238l0 1.133c0.4947,0.0415 1.0922,0.1028 1.5039,0.1647l0 10.9812c0.9268,0.2471 1.8542,0.3709 3.0696,0.3709 2.843,0 4.574,-1.8957 4.574,-4.8619 0,-2.596 -1.133,-4.0589 -3.173,-4.0589 -1.2568,0 -2.287,0.6797 -2.7402,1.7514l-0.0409 0c0.1028,-0.4532 0.1647,-1.133 0.1647,-1.6481l0 -3.9561z"/>
  <path class="fil1" d="M92.9842 223.881l0 -1.133c-0.4737,-0.0415 -1.0302,-0.1028 -1.442,-0.1647l0 -7.149c-1.071,-0.0619 -2.2665,0 -3.1934,0.1238l0 1.133c0.4532,0.0415 0.9683,0.1028 1.3392,0.1443l0 2.7198c0,1.7099 -0.9479,3.0695 -2.2456,3.0695 -0.9887,0 -1.2772,-0.6179 -1.2772,-1.6895l0 -5.5213c-1.133,-0.0619 -2.3693,0.0204 -3.2757,0.1238l0 1.133c0.4532,0.0415 1.0302,0.1028 1.4419,0.1647l0 4.574c0,1.5249 0.5974,2.7402 2.5545,2.7402 1.4629,0 2.4721,-0.7621 2.9872,-1.8747l0.0415 0.0205c-0.0824,0.4946 -0.1238,1.1948 -0.1238,1.6685 1.0302,0.0817 2.287,0.0198 3.1934,-0.0829z"/>
  <path class="fil1" d="M99.948 215.228c-1.7924,-0.1647 -2.6579,0.9268 -3.0492,2.0808l-0.021 0c0.1028,-0.6593 0.1647,-1.4215 0.1647,-1.8957 -1.0506,-0.0619 -2.3074,0.0205 -3.2757,0.1238l0 1.133c0.4946,0.0415 1.0921,0.1028 1.5038,0.1647l0 5.8098c-0.5151,0.0415 -1.0507,0.1238 -1.5038,0.2266l0 1.133 4.842 0.0006 0 -1.133c-0.4532,-0.1028 -0.9887,-0.1851 -1.5038,-0.2266l0 -2.1223c0,-2.5755 0.8445,-3.7704 2.7402,-3.4615l0.1028 -1.8332z"/>
  <path class="fil1" d="M107.324 225.302c0,1.0098 -0.9064,1.6896 -2.5136,1.6896 -1.2568,0 -2.1223,-0.5151 -2.1223,-1.4419 0,-0.5975 0.3504,-1.1126 0.9479,-1.442 0.1238,0.0205 0.3293,0.0205 0.4736,0.0205l1.6072 -0.0006c1.1125,0 1.6072,0.4947 1.6072,1.1744m-0.556 -6.9018c0,1.1329 -0.7621,1.7719 -1.9366,1.7719 -1.2363,0 -1.9161,-0.639 -1.9161,-1.7924 0,-1.0506 0.7212,-1.7923 1.957,-1.7923 1.2153,0 1.8957,0.7002 1.8957,1.8128zm2.4103 6.6753c0,-1.5658 -1.0711,-2.4313 -2.9464,-2.4313l-1.4624 0c-1.0302,0 -1.4215,-0.1647 -1.4215,-0.5975 0,-0.247 0.1647,-0.4946 0.4947,-0.6593 0.2681,0.0619 0.6389,0.1028 0.9478,0.1028 2.4932,0 3.7705,-1.3392 3.7705,-3.1934 0,-0.6179 -0.2266,-1.133 -0.5975,-1.442l1.3175 0 0 -1.4629 -2.9048 0c-0.4532,-0.1028 -0.9269,-0.1647 -1.4215,-0.1647 -2.5136,0 -3.8528,1.5038 -3.8528,3.2962 0,1.133 0.4736,1.9985 1.2568,2.4312 -0.577,0.2681 -0.9683,0.8445 -0.9683,1.4834 0,0.577 0.3294,1.0302 0.8445,1.2773 -0.7417,0.3708 -1.3806,1.1949 -1.3806,2.1632 0,1.6685 1.401,2.534 3.6466,2.534 2.8027,0.021 4.6774,-1.4828 4.6774,-3.337z"/>
  <path class="fil1" d="M116.08 218.503l-3.6466 0c0.1647,-1.154 0.8859,-1.9161 1.9161,-1.9161 1.0915,0.0006 1.7719,0.7417 1.7305,1.9161m1.8542 0.4328c0,-2.0394 -1.0506,-3.7289 -3.5228,-3.7289 -2.5136,0 -3.9351,1.9366 -3.9351,4.5325 0,3.0287 1.463,4.4087 4.1617,4.4087 1.0507,0 2.1013,-0.1851 2.9668,-0.5559l-0.1647 -1.463c-0.7002,0.3504 -1.6276,0.556 -2.5136,0.556 -1.71,0 -2.5959,-0.9064 -2.534,-2.8845l5.4798 0.0006c0.0415,-0.33 0.0619,-0.6185 0.0619,-0.8655z"/>
  <path class="fil1" d="M125.309 215.228c-1.7923,-0.1647 -2.6578,0.9268 -3.0491,2.0808l-0.0204 0c0.1027,-0.6593 0.1646,-1.4215 0.1646,-1.8957 -1.0506,-0.0619 -2.3074,0.0205 -3.2757,0.1238l0 1.133c0.4947,0.0415 1.0921,0.1028 1.5038,0.1647l0 5.8098c-0.5151,0.0415 -1.0506,0.1238 -1.5038,0.2266l0 1.133 4.8415 0.0006 0 -1.133c-0.4532,-0.1028 -0.9887,-0.1851 -1.5038,-0.2266l0 -2.1223c0,-2.5755 0.8444,-3.7704 2.7402,-3.4615l0.1027 -1.8332z"/>
  <path class="fil2" d="M13.9114 188.959l0 -163.523c0,-6.4487 5.2327,-11.6815 11.6814,-11.6815l151.862 0c6.4487,0 11.6815,5.2328 11.6815,11.6815l0 151.841c0,6.4487 -5.2328,11.6815 -11.6815,11.6815l-163.544 0.0006z"/>
  <polygon class="fil3" points="84.9697,101.234 111.671,101.234 111.671,107.909 118.346,107.909 118.346,114.584 104.996,114.584 104.996,107.909 91.645,107.909 91.645,141.285 104.996,141.285 104.996,134.61 118.346,134.61 118.346,141.285 111.671,141.285 111.671,147.96 84.9697,147.96 84.9697,141.285 78.2944,141.285 78.2944,107.909 84.9697,107.909 "/>
  <polygon class="fil3" points="130.852,101.234 144.202,101.234 144.202,107.909 150.878,107.909 150.878,114.584 157.553,114.584 157.553,107.909 164.228,107.909 164.228,101.234 177.578,101.234 177.578,147.96 164.228,147.96 164.228,121.259 157.553,121.259 157.553,127.934 150.878,127.934 150.878,121.259 144.202,121.259 144.202,147.96 130.852,147.96 "/>
  <path class="fil3" d="M52.4383 107.909l-13.3506 0 0 33.3765 13.3506 -0.0006 0 -33.3759zm-20.0259 -6.6753l26.7012 0 0 6.6753 6.6753 0 0 33.3765 -6.6753 -0.0006 0 6.6753 -26.7012 0 0 -6.6753 -6.6753 0 0 -33.3765 6.6753 0.0006 0 -6.6753z"/>
 </g>
</svg>
